. 
  
http://www.torrenting.com/        :     Greatest Movie Tracker on The Net!!!
 
http://www.Torrenting.com          :     Once & For all ;)


               www . Torrenting . Com 

(((((((((((((= Enjoy No RAR releases =))))))))))))))))))))


...................................NFO:....................................

.[img]http://img819.imageshack.us/img819/368/adventuress.jpg[/img]

[color=blue][size=5][b]Adventures Of A Teenage Dragonslayer 2010 BDRip XVID AC3 HQ Hive-CM8[/b][/size][/color]



[b]Thx Hive

CM8 Doing It Right The First Time :D

Why download a touched up rip of a rip BRrip
Get the real deal BDRip
Enjoy

Source Bluray

Video: 720x400 @bitrate 2000 2pass
Audio: TrueHD AC3 640 to AC3 5.1 @448
Sample: yes included[/b]


[url]http://www.imdb.com/title/tt1373149/[/url]


General
Complete name                    : Adventures.of.a.Teenage.Dragonslayer.2010.BDRip.XVID.AC3.HQ.Hive-CM8.avi
Format                           : AVI
Format/Info                      : Audio Video Interleave
File size                        : 1.59 GiB
Duration                         : 1h 32mn
Overall bit rate                 : 2 457 Kbps
Writing application              : Nandub v1.0rc2
Writing library                  : Nandub build 1853/release

Video
ID                               : 0
Format                           : MPEG-4 Visual
Format profile                   : Advanced Simple@L5
Format settings, BVOP            : Yes
Format settings, QPel            : Yes
Format settings, GMC             : No warppoints
Format settings, Matrix          : Default (H.263)
Muxing mode                      : Packed bitstream
Codec ID                         : XVID
Codec ID/Hint                    : XviD
Duration                         : 1h 32mn
Bit rate                         : 1 999 Kbps
Width                            : 720 pixels
Height                           : 400 pixels
Display aspect ratio             : 16:9
Frame rate                       : 23.976 fps
Color space                      : YUV
Chroma subsampling               : 4:2:0
Bit depth                        : 8 bits
Scan type                        : Progressive
Bits/(Pixel*Frame)               : 0.290
Stream size                      : 1.29 GiB (81%)
Writing library                  : XviD 1.2.1 (UTC 2008-12-04)

Audio
ID                               : 1
Format                           : AC-3
Format/Info                      : Audio Coding 3
Mode extension                   : CM (complete main)
Codec ID                         : 2000
Duration                         : 1h 32mn
Bit rate mode                    : Constant
Bit rate                         : 448 Kbps
Channel(s)                       : 6 channels
Channel positions                : Front: L C R, Side: L R, LFE
Sampling rate                    : 48.0 KHz
Bit depth                        : 16 bits
Stream size                      : 297 MiB (18%)
Alignment                        : Split accross interleaves
Interleave, duration             : 42 ms (1.00 video frame)
Interleave, preload duration     : 500 ms



Lea Thompson	 ... 	Laura
Wendie Malick	... 	Vice-Principal Metz
Amy Pietz	... 	Annie
Eric Lutes	... 	Shane
Andrew Lauer	... 	Dad
Abigail Victor	... 	Natalie
Hunter Allan	... 	Arthur
Jordan Reynolds	... 	Larry



Branded as a 'nerd' and harassed by the school bully, 12-year-old Arthur is 
rescued by a magical troll who knows that the boy unwittingly holds the secret 
to defeat an evil dragon. Arthur's loving mom, struggling to keep her devious 
ex-husband from gaining custody of Arthur, dismisses her son's 'fantasies' until 
she realizes the all-too-real immediate danger and joins forces with Arthur, 
the troll, and a dashing but washed up video-game master. Together, they hope 
to conquer the dragon and the wicked vice-principal who threaten civilization.



[img]http://img59.imageshack.us/img59/5259/29715582.png[/img]
[img]http://img600.imageshack.us/img600/2152/adady.png[/img]
[img]http://img858.imageshack.us/img858/7908/adadad.png[/img]
[img]http://img705.imageshack.us/img705/6161/adadadad.png[/img]
[img]http://img26.imageshack.us/img26/6326/adadadadadg.png[/img]
[img]http://img148.imageshack.us/img148/9523/adadadadadad.png[/img]
[img]http://img402.imageshack.us/img402/892/adadadadadadad.png[/img]
[img]http://img62.imageshack.us/img62/4475/adadadadadadadad.png[/img]





ViSiON,LUSi,,MAGNET,CLASSiFiED,THC,T0XiCiNK,IMAGiNE,WBZ,FLAWL3SS,NOVA
Vik,Rapeseed,D2U,SAFC,goldadvance,MEMORY100,KaN1vE,Unevano,Pinnz,Wayne,Mr Hive
and all P2P groups 
Great Work Guys :D

CM8@hushmail.com